<svg width="15" height="15" viewBox="0 0 15 15" fill="none" xmlns="http://www.w3.org/2000/svg">
<path d="M12.153 9.06531C11.6307 8.54972 10.9787 8.54972 10.4598 9.06531C10.064 9.45782 9.66813 9.85034 9.27894 10.2495C9.1725 10.3593 9.08269 10.3826 8.95296 10.3094C8.69682 10.1697 8.42406 10.0566 8.17791 9.90356C7.0303 9.18173 6.06896 8.25367 5.21741 7.20918C4.79495 6.69026 4.41907 6.13475 4.15628 5.50938C4.10306 5.38298 4.11304 5.29982 4.21616 5.1967C4.612 4.81417 4.99786 4.42165 5.38705 4.02913C5.92926 3.4836 5.92926 2.84493 5.38373 2.29608C5.07437 1.9834 4.76501 1.67737 4.45566 1.36468C4.13632 1.04535 3.82032 0.722689 3.49766 0.406681C2.97541 -0.102259 2.32343 -0.102259 1.80452 0.410007C1.40535 0.802523 1.02281 1.20502 0.61699 1.59088C0.241106 1.94681 0.0515015 2.38256 0.0115846 2.8915C-0.0516171 3.71978 0.151294 4.50148 0.437364 5.26323C1.02281 6.83994 1.91429 8.24036 2.99537 9.52435C4.45566 11.2607 6.19869 12.6345 8.23778 13.6258C9.15587 14.0715 10.1072 14.4142 11.1417 14.4707C11.8536 14.5106 12.4723 14.331 12.9679 13.7755C13.3072 13.3963 13.6898 13.0503 14.049 12.6878C14.5812 12.1489 14.5846 11.4969 14.0557 10.9647C13.4236 10.3293 12.7883 9.69732 12.153 9.06531Z" fill="#66332B"/>
</svg>
