<svg width="104" height="32" viewBox="0 0 104 32" fill="none" xmlns="http://www.w3.org/2000/svg">
<path d="M88.3476 22.8569C87.6171 22.8667 86.8908 22.7452 86.2045 22.4985C85.5882 22.2766 85.0283 21.9255 84.5633 21.4696C84.0984 21.0137 83.7396 20.4638 83.5116 19.858C83.2565 19.1823 83.1306 18.4659 83.1402 17.7451C83.1311 17.0213 83.257 16.302 83.5116 15.623C83.7415 15.0148 84.1001 14.4616 84.5637 14.0002C85.0312 13.5468 85.5889 13.1935 86.2017 12.9625C86.8867 12.7101 87.6135 12.586 88.3448 12.5967C89.0794 12.5866 89.8095 12.7106 90.4982 12.9625C91.1147 13.1916 91.6758 13.545 92.1455 14.0002C92.609 14.4618 92.9679 15.0149 93.1985 15.623C93.4527 16.3021 93.5786 17.0213 93.5699 17.7451C93.5791 18.4659 93.4532 19.1822 93.1985 19.858C92.9661 20.4623 92.6074 21.0118 92.1455 21.4708C91.677 21.925 91.1154 22.2754 90.4982 22.4985C89.8091 22.7443 89.0805 22.8658 88.3476 22.8569ZM88.3476 14.6127C87.94 14.5988 87.536 14.6936 87.1786 14.887C86.8754 15.0612 86.6184 15.3033 86.4283 15.5938C86.2334 15.8996 86.098 16.2385 86.029 16.5931C85.9508 16.9719 85.9116 17.3576 85.912 17.7442C85.9113 18.1275 85.9505 18.5098 86.029 18.8852C86.1001 19.2392 86.2354 19.5777 86.4283 19.8845C86.6149 20.178 86.8727 20.4212 87.1786 20.5922C87.5382 20.7791 87.9412 20.8702 88.3476 20.8564C88.7572 20.8694 89.1633 20.7784 89.5269 20.5922C89.8369 20.4231 90.0985 20.1797 90.2874 19.8845C90.48 19.5775 90.6152 19.2391 90.6867 18.8852C90.7648 18.5097 90.804 18.1274 90.8037 17.7442C90.8037 17.3576 90.7645 16.972 90.6867 16.5931C90.6174 16.2386 90.482 15.8998 90.2874 15.5938C90.0949 15.3017 89.8341 15.0594 89.5269 14.887C89.1654 14.6944 88.7584 14.5998 88.3476 14.6127ZM70.6101 22.8569C69.9228 22.8707 69.2418 22.7254 68.622 22.4326C68.0664 22.1624 67.5825 21.7682 67.2088 21.2815C66.8305 20.7794 66.5474 20.2141 66.373 19.613C66.1851 18.9755 66.0913 18.3147 66.0945 17.6509C66.0917 17.0088 66.1856 16.3697 66.373 15.7547C66.5479 15.1708 66.8312 14.624 67.2088 14.1419C67.6038 13.6441 68.1122 13.2447 68.6929 12.976C69.2736 12.7073 69.9103 12.5768 70.5516 12.5949C71.1402 12.593 71.7221 12.7178 72.2565 12.9606C72.78 13.1936 73.2236 13.5712 73.5332 14.0477H73.5722V9.14258H76.3403V22.6118H73.7097V21.3666H73.6707C73.375 21.8674 72.9294 22.2659 72.3948 22.5076C71.8317 22.7469 71.2234 22.8659 70.6101 22.8569ZM71.2917 14.6127C70.8916 14.6003 70.4952 14.6914 70.1421 14.877C69.838 15.0462 69.5805 15.286 69.3918 15.5755C69.1972 15.8793 69.0586 16.2145 68.9823 16.5657C68.8971 16.9467 68.8548 17.3358 68.856 17.7259C68.8567 18.1071 68.9025 18.487 68.9925 18.8578C69.0765 19.2161 69.2249 19.5567 69.4308 19.8635C69.6276 20.1544 69.8869 20.3991 70.1904 20.5803C70.5248 20.7699 70.9059 20.8648 71.2917 20.8546C71.6874 20.8684 72.0797 20.7781 72.4282 20.5931C72.7287 20.4215 72.9803 20.1781 73.16 19.8854C73.3475 19.5746 73.4794 19.2345 73.5499 18.8797C73.6281 18.4947 73.667 18.103 73.666 17.7103C73.6686 17.3202 73.631 16.9309 73.5537 16.5483C73.4841 16.1994 73.3483 15.8666 73.1535 15.5673C72.9663 15.2859 72.7164 15.0505 72.4227 14.8788C72.0773 14.6913 71.6868 14.5993 71.2926 14.6127H71.2917ZM58.6418 22.8569C58.0215 22.8758 57.4032 22.7796 56.819 22.5734C56.3795 22.4092 55.9926 22.1324 55.6982 21.7716C55.4132 21.398 55.2168 20.9662 55.1234 20.5081C55.009 19.9668 54.9536 19.4151 54.9581 18.8623V12.8582H57.7262V18.3668C57.6845 18.9913 57.8191 19.6151 58.1153 20.1689C58.2738 20.3775 58.4847 20.542 58.7272 20.6462C58.9698 20.7503 59.2357 20.7907 59.4988 20.7631C59.8046 20.7902 60.1124 20.7455 60.3972 20.6326C60.6819 20.5198 60.9354 20.342 61.1368 20.114C61.5297 19.4703 61.707 18.7212 61.6438 17.9727V12.8582H64.4119V22.6118H61.7803V21.2532H61.7218C61.4035 21.7886 60.9275 22.2162 60.3568 22.4793C59.8196 22.7258 59.2345 22.8547 58.6418 22.8569ZM41.8783 22.8569C41.3019 22.8575 40.727 22.8006 40.1623 22.6868C39.6364 22.5868 39.1323 22.3968 38.6729 22.1254C38.2023 21.8484 37.8134 21.455 37.545 20.9843C37.2765 20.5135 37.1378 19.9819 37.1426 19.442H39.7742C39.7677 19.7022 39.8318 19.9595 39.9599 20.1871C40.0792 20.3895 40.2425 20.5634 40.4381 20.6964C40.6428 20.8323 40.8704 20.9311 41.1104 20.9881C41.369 21.0502 41.6344 21.0809 41.9006 21.0795C42.107 21.0781 42.3127 21.0557 42.5144 21.0127C42.7184 20.9724 42.9153 20.9025 43.0985 20.8052C43.2712 20.7133 43.4209 20.5846 43.5367 20.4285C43.6587 20.2542 43.7203 20.0458 43.7122 19.8342C43.7122 19.4338 43.4337 19.1284 42.884 18.9282C42.1293 18.6734 41.3573 18.4718 40.5737 18.3247C40.1707 18.2333 39.7742 18.1318 39.3944 18.013C39.0334 17.9031 38.6896 17.7443 38.373 17.5412C38.0806 17.3528 37.8342 17.103 37.6515 16.8098C37.4606 16.48 37.3655 16.1049 37.3766 15.7254C37.3546 15.1849 37.4865 14.6491 37.7573 14.1785C38.0046 13.7829 38.3496 13.4554 38.7602 13.2267C39.1968 12.9872 39.6711 12.8213 40.1633 12.7357C40.6908 12.6411 41.226 12.5937 41.7622 12.594C42.2956 12.5931 42.8278 12.6439 43.351 12.7458C43.8357 12.8357 44.3007 13.008 44.7253 13.255C45.1281 13.4946 45.4711 13.8202 45.7291 14.2077C46.0129 14.6603 46.1767 15.1759 46.2055 15.7071H43.5748C43.5797 15.4951 43.526 15.2858 43.4195 15.1014C43.3131 14.9171 43.1578 14.7646 42.9703 14.6603C42.5694 14.47 42.1283 14.376 41.6833 14.386C41.5142 14.3868 41.3453 14.3963 41.1772 14.4143C41.0064 14.4304 40.8389 14.4717 40.6805 14.5369C40.5337 14.598 40.4034 14.6919 40.2998 14.8111C40.1905 14.948 40.1354 15.1192 40.1447 15.293C40.1419 15.4043 40.1649 15.5148 40.2121 15.6161C40.2592 15.7173 40.3292 15.8066 40.4168 15.8772C40.6282 16.0429 40.87 16.167 41.129 16.2429C41.4583 16.3468 41.7935 16.4319 42.1327 16.498C42.5135 16.5748 42.9007 16.6571 43.2823 16.743C43.6807 16.83 44.0744 16.9371 44.4616 17.0639C44.825 17.1803 45.1692 17.3485 45.483 17.5631C45.7774 17.7665 46.0232 18.0304 46.2036 18.3366C46.3955 18.6865 46.4897 19.0802 46.4766 19.4777C46.496 20.0411 46.3579 20.599 46.0773 21.0905C45.8191 21.5165 45.4621 21.8761 45.0355 22.1401C44.5833 22.412 44.0845 22.6004 43.5637 22.6959C43.0085 22.8031 42.4441 22.857 41.8783 22.8569ZM52.0136 22.7051C51.606 22.7065 51.1988 22.678 50.7954 22.6201C50.4396 22.5723 50.0959 22.4605 49.7814 22.29C49.4895 22.1252 49.2499 21.8837 49.0896 21.5924C48.9059 21.2232 48.8187 20.8146 48.8361 20.4038V14.6511H47.1609V12.8582H48.837V9.93526H51.6051V12.861H53.6321V14.653H51.6051V19.4822C51.5662 19.8021 51.6497 20.1247 51.8391 20.3874C52.1131 20.5715 52.4455 20.652 52.7751 20.6141C52.9264 20.6141 53.0778 20.6077 53.2226 20.5949C53.3675 20.5821 53.5012 20.5629 53.6321 20.5382V22.6137C53.3738 22.6533 53.1134 22.6784 52.8521 22.6886C52.581 22.6996 52.2987 22.706 52.0146 22.706L52.0136 22.7051ZM104 22.6118H94.7408V20.5931L99.9845 14.877H95.1308V12.8582H103.628V14.877L98.3845 20.5931H104V22.6109V22.6118ZM81.2719 22.6118H78.5048V12.8582H81.2729V22.6109L81.2719 22.6118ZM81.2719 11.3497H78.5048V9.14258H81.2729V11.3487L81.2719 11.3497Z" fill="white"/>
<path d="M32.4999 16C32.4999 19.1645 31.5469 22.2579 29.7613 24.8891C27.9757 27.5203 25.4378 29.5711 22.4685 30.7821C19.4993 31.9931 16.2319 32.3099 13.0797 31.6926C9.92756 31.0752 7.0321 29.5513 4.7595 27.3137C2.4869 25.0761 0.939246 22.2251 0.312238 19.1214C-0.31477 16.0177 0.00703318 12.8007 1.23695 9.87706C2.46687 6.95345 4.54967 4.45459 7.22196 2.69649C9.89425 0.938383 13.036 0 16.25 0C20.5597 0 24.6929 1.68571 27.7404 4.68629C30.7879 7.68687 32.4999 11.7565 32.4999 16Z" fill="#ED357E"/>
<path d="M9.1 14.72V12.8448H10.7594V12.0558C10.7429 11.6486 10.8083 11.2421 10.9517 10.8598C11.0951 10.4774 11.3137 10.1267 11.5951 9.8277C11.9347 9.51809 12.3358 9.28115 12.773 9.13181C13.2103 8.98247 13.6743 8.92399 14.1356 8.96005C14.3832 8.96005 14.6309 8.9698 14.8785 8.9893C15.1261 9.00881 15.3666 9.02527 15.6 9.03867V11.1287C15.2632 11.0885 14.9243 11.0686 14.5851 11.0693C14.4385 11.0552 14.2905 11.0717 14.1508 11.1177C14.0111 11.1637 13.8829 11.2382 13.7744 11.3363C13.5863 11.597 13.4997 11.9157 13.5302 12.2341V12.8448H15.4431V14.72H13.5311V23.04H10.7594V14.72H9.1Z" fill="#FEFEFE"/>
<path d="M20.4982 23.0402V14.7714H16.9V12.9099C17.3897 12.9227 17.8795 12.8859 18.3616 12.8002C18.8067 12.7259 19.2355 12.5765 19.6291 12.3586C20.002 12.1488 20.326 11.8641 20.5799 11.523C20.8528 11.1423 21.0281 10.7021 21.0906 10.2402H23.4V23.0402H20.4982Z" fill="#FEFEFE"/>
</svg>
