<svg width="24" height="25" viewBox="0 0 24 25" fill="none" xmlns="http://www.w3.org/2000/svg">
<path fill-rule="evenodd" clip-rule="evenodd" d="M5.42812 6.02588H18.5659C18.9527 6.02588 19.2874 6.17047 19.5701 6.4595C19.8525 6.7489 19.994 7.09635 19.994 7.50241C19.994 7.98843 19.8481 8.45292 19.557 8.89573C19.2654 9.33854 18.9025 9.71704 18.4682 10.0307C17.0241 11.067 15.9343 11.8494 15.1944 12.3809C14.7877 12.6729 14.4853 12.8903 14.2912 13.0299C14.2624 13.0508 14.2174 13.0839 14.1577 13.1282C14.0934 13.1758 14.012 13.2364 13.9118 13.3114C13.7184 13.456 13.5577 13.5729 13.4298 13.6622C13.3016 13.7513 13.147 13.8512 12.9656 13.962C12.784 14.0728 12.613 14.1559 12.4524 14.2112C12.2917 14.2665 12.1429 14.2942 12.0061 14.2942H11.9972H11.9884C11.8515 14.2942 11.7028 14.2665 11.5421 14.2112C11.3815 14.1559 11.2103 14.0727 11.0289 13.962C10.8473 13.8512 10.6925 13.7515 10.5647 13.6622C10.4368 13.5729 10.2761 13.456 10.0828 13.3114C9.98234 13.2364 9.90095 13.1758 9.83663 13.1281L9.83046 13.1235C9.77382 13.0816 9.73096 13.0499 9.70335 13.0299C9.4542 12.8487 9.15244 12.6304 8.80253 12.3784C8.39201 12.0823 7.91431 11.7393 7.36499 11.3457C6.34741 10.6168 5.7375 10.1784 5.53525 10.0307C5.16632 9.77234 4.81818 9.41717 4.49101 8.96499C4.16383 8.51263 4.00017 8.09276 4.00017 7.70525C4.00017 7.22551 4.1235 6.82548 4.37056 6.50562C4.61741 6.1859 4.96979 6.02588 5.42812 6.02588ZM4 10.2154C4.26178 10.5169 4.56247 10.7846 4.90155 11.0183C6.16543 11.9063 7.19492 12.6374 7.99393 13.2142L4 17.3436V10.2154ZM19.5018 18.6539C19.2369 18.8962 18.9254 19.0189 18.5659 19.0189H5.42809C5.0686 19.0189 4.75688 18.8962 4.49208 18.6539L9.02432 13.9673C9.13768 14.0515 9.24254 14.1301 9.33709 14.2018C9.67637 14.4601 9.95145 14.6617 10.1628 14.8061C10.3739 14.9509 10.655 15.0985 11.0062 15.2491C11.3573 15.4 11.6845 15.4751 11.988 15.4751H11.9969H12.0058C12.3093 15.4751 12.6365 15.4 12.9877 15.2491C13.3386 15.0985 13.6198 14.9509 13.8311 14.8061C14.0424 14.6617 14.3176 14.4601 14.6568 14.2018C14.7563 14.1274 14.8617 14.0491 14.9704 13.9686L19.5018 18.6539ZM19.1015 11.0183C17.8859 11.869 16.8526 12.6014 16.0017 13.2158L19.994 17.3438V10.2154C19.7381 10.5108 19.4406 10.7783 19.1015 11.0183Z" fill="#66332B"/>
</svg>
